<svg width="28" height="32" viewBox="0 0 28 32" fill="none" xmlns="http://www.w3.org/2000/svg">
<path d="M23.5136 0H5.15339C2.77197 0 0.833344 1.91467 0.833344 4.26666V27.2002C0.833344 29.8468 3.01362 32 5.69323 32H8.39326C8.98998 32 9.47327 31.5227 9.47327 30.9333C9.47327 30.344 8.98998 29.8667 8.39326 29.8667H5.69323C4.20416 29.8667 2.9932 28.6707 2.9932 27.2C2.9932 25.7293 4.20416 24.5333 5.69323 24.5333H10.0133V30.9333C10.0133 31.3507 10.2603 31.7306 10.6464 31.904C10.7895 31.968 10.9421 32 11.0933 32C11.3498 32 11.6023 31.9107 11.8034 31.7373L14.255 29.6293L16.8903 31.7587C17.2129 32.02 17.6598 32.0733 18.0364 31.8973C18.4131 31.7213 18.6534 31.3453 18.6534 30.9333V24.5333H23.5133C25.8947 24.5333 27.8333 22.6187 27.8333 20.2667V4.26669C27.8333 1.9147 25.895 0 23.5136 0ZM16.4937 28.6826L14.9169 27.4079C14.7171 27.2466 14.4741 27.1666 14.2324 27.1666C13.9786 27.1666 13.7262 27.2546 13.5236 27.4292L12.1736 28.5892V24.5331H16.4937V28.6826ZM25.6736 20.2667C25.6736 21.4427 24.7043 22.4 23.5136 22.4H5.69357C4.69457 22.4 3.76576 22.7 2.99354 23.212V4.26663C2.99354 3.09064 3.96286 2.1333 5.15357 2.1333H23.5138C24.7045 2.1333 25.6738 3.09064 25.6738 4.26663L25.6736 20.2667ZM27.2262 27.1998C27.2262 29.8918 25.1215 31.9996 22.4337 31.9996H20.2736C19.6769 31.9996 19.1936 31.5223 19.1936 30.933C19.1936 30.3436 19.6769 29.8663 20.2736 29.8663H22.4337C23.9349 29.8663 25.0662 28.7196 25.0662 27.1996C25.0662 26.6103 25.5495 26.133 26.1462 26.133C26.7429 26.133 27.2262 26.6105 27.2262 27.1998ZM22.4337 10.1332C22.4337 10.7225 21.9504 11.1998 21.3536 11.1998H7.31349C6.71677 11.1998 6.23347 10.7225 6.23347 10.1332C6.23347 9.54381 6.71677 9.06649 7.31349 9.06649H21.3536C21.9504 9.06649 22.4337 9.54381 22.4337 10.1332ZM22.4337 14.3998C22.4337 14.9892 21.9504 15.4665 21.3536 15.4665H7.31349C6.71677 15.4665 6.23347 14.9892 6.23347 14.3998C6.23347 13.8105 6.71677 13.3332 7.31349 13.3332H21.3536C21.9504 13.3332 22.4337 13.8105 22.4337 14.3998Z" fill="black"/>
</svg>
