<svg width="33" height="30" viewBox="0 0 33 30" fill="none" xmlns="http://www.w3.org/2000/svg">
<path d="M11.3334 14.9997V17.1425C11.3334 17.7345 10.856 18.2139 10.2667 18.2139H8.13335C7.54401 18.2139 7.06669 17.7345 7.06669 17.1425V14.9997C7.06669 14.4077 7.54401 13.9282 8.13335 13.9282H10.2667C10.856 13.9282 11.3334 14.4077 11.3334 14.9997ZM17.7334 13.9282H15.6C15.0107 13.9282 14.5334 14.4077 14.5334 14.9997V17.1425C14.5334 17.7345 15.0107 18.2139 15.6 18.2139H17.7334C18.3227 18.2139 18.8 17.7345 18.8 17.1425V14.9997C18.8 14.4077 18.3227 13.9282 17.7334 13.9282ZM25.2 13.9282H23.0667C22.4773 13.9282 22 14.4077 22 14.9997V17.1425C22 17.7345 22.4773 18.2139 23.0667 18.2139H25.2C25.7894 18.2139 26.2667 17.7345 26.2667 17.1425V14.9997C26.2667 14.4077 25.7894 13.9282 25.2 13.9282ZM10.2667 19.8213H8.13335C7.54401 19.8213 7.06669 20.3007 7.06669 20.8927V23.0355C7.06669 23.6275 7.54401 24.107 8.13335 24.107H10.2667C10.856 24.107 11.3334 23.6275 11.3334 23.0355V20.8927C11.3334 20.3007 10.856 19.8213 10.2667 19.8213ZM17.7334 19.8213H15.6C15.0107 19.8213 14.5334 20.3007 14.5334 20.8927V23.0355C14.5334 23.6275 15.0107 24.107 15.6 24.107H17.7334C18.3227 24.107 18.8 23.6275 18.8 23.0355V20.8927C18.8 20.3007 18.3227 19.8213 17.7334 19.8213ZM25.2 19.8213H23.0667C22.4773 19.8213 22 20.3007 22 20.8927V23.0355C22 23.6275 22.4773 24.107 23.0667 24.107H25.2C25.7894 24.107 26.2667 23.6275 26.2667 23.0355V20.8927C26.2667 20.3007 25.7894 19.8213 25.2 19.8213ZM32.6667 6.42857V25.7143C32.6667 28.0768 30.752 30 28.4 30H4.93335C2.58136 30 0.666687 28.0768 0.666687 25.7143V6.42857C0.666687 4.06608 2.58136 2.14286 4.93335 2.14286H7.60002V0H9.73335V2.14286H23.6V0H25.7334V2.14286H28.4C30.752 2.14286 32.6667 4.06608 32.6667 6.42857ZM2.80002 6.42857V9.10714H30.5334V6.42857C30.5334 5.24733 29.576 4.28571 28.4 4.28571H25.7334V6.42857H23.6V4.28571H9.73335V6.42857H7.60002V4.28571H4.93335C3.75736 4.28571 2.80002 5.24733 2.80002 6.42857ZM30.5334 25.7143V11.2498H2.80002V25.7143C2.80002 26.8955 3.75736 27.8571 4.93335 27.8571H28.4C29.576 27.8571 30.5334 26.8955 30.5334 25.7143Z" fill="black"/>
</svg>
