<svg width="34" height="33" viewBox="0 0 34 33" fill="none" xmlns="http://www.w3.org/2000/svg">
<path d="M17 32.2C8.17795 32.2 0.999988 25.022 0.999988 16.2C0.999988 7.37753 8.17751 0.2 17 0.2C25.8225 0.2 33 7.37753 33 16.2C33 25.022 25.822 32.2 17 32.2ZM17 1.95071C9.14324 1.95071 2.75113 8.34282 2.75113 16.2C2.75113 24.0567 9.14324 30.4493 17 30.4493C24.8567 30.4493 31.2488 24.0567 31.2488 16.2C31.2488 8.34282 24.8567 1.95071 17 1.95071Z" fill="black"/>
<path fill-rule="evenodd" clip-rule="evenodd" d="M17 32.4C8.06749 32.4 0.799988 25.1325 0.799988 16.2C0.799988 7.26707 8.06706 0 17 0C25.9329 0 33.2 7.26707 33.2 16.2C33.2 25.1325 25.9325 32.4 17 32.4ZM17 2.15071C9.25371 2.15071 2.95113 8.45327 2.95113 16.2C2.95113 23.9463 9.25371 30.2493 17 30.2493C24.7463 30.2493 31.0488 23.9463 31.0488 16.2C31.0488 8.45327 24.7463 2.15071 17 2.15071ZM0.999988 16.2C0.999988 25.022 8.17795 32.2 17 32.2C25.822 32.2 33 25.022 33 16.2C33 7.37753 25.8225 0.2 17 0.2C8.17751 0.2 0.999988 7.37753 0.999988 16.2ZM2.75113 16.2C2.75113 8.34282 9.14324 1.95071 17 1.95071C24.8567 1.95071 31.2488 8.34282 31.2488 16.2C31.2488 24.0567 24.8567 30.4493 17 30.4493C9.14324 30.4493 2.75113 24.0567 2.75113 16.2Z" fill="black"/>
<path d="M17 20.9324C14.0339 20.9324 11.6208 18.519 11.6208 15.5529C11.6208 12.5868 14.0334 10.1737 17 10.1737C19.9669 10.1737 22.38 12.5872 22.38 15.5533C22.38 18.5194 19.9665 20.9324 17 20.9324ZM17 11.9244C14.9992 11.9244 13.3715 13.5525 13.3715 15.5529C13.3715 17.5532 14.9992 19.1813 17 19.1813C19.0012 19.1813 20.6293 17.5532 20.6293 15.5529C20.6293 13.5525 19.0012 11.9244 17 11.9244Z" fill="black"/>
<path fill-rule="evenodd" clip-rule="evenodd" d="M17 21.1324C13.9234 21.1324 11.4208 18.6294 11.4208 15.5529C11.4208 12.4763 13.923 9.97373 17 9.97373C20.0774 9.97373 22.58 12.4767 22.58 15.5533C22.58 18.6299 20.0769 21.1324 17 21.1324ZM17 12.1244C15.1096 12.1244 13.5715 13.6629 13.5715 15.5529C13.5715 17.4428 15.1096 18.9813 17 18.9813C18.8908 18.9813 20.4293 17.4428 20.4293 15.5529C20.4293 13.663 18.8908 12.1244 17 12.1244ZM11.6208 15.5529C11.6208 18.519 14.0339 20.9324 17 20.9324C19.9665 20.9324 22.38 18.5194 22.38 15.5533C22.38 12.5872 19.9669 10.1737 17 10.1737C14.0334 10.1737 11.6208 12.5868 11.6208 15.5529ZM13.3715 15.5529C13.3715 13.5525 14.9992 11.9244 17 11.9244C19.0012 11.9244 20.6293 13.5525 20.6293 15.5529C20.6293 17.5532 19.0012 19.1813 17 19.1813C14.9992 19.1813 13.3715 17.5532 13.3715 15.5529Z" fill="black"/>
<path d="M17 32.2C13.6767 32.2 10.4869 31.1866 7.77571 29.269L7.36263 28.9773L7.40944 28.4736C7.87063 23.4937 11.9936 19.7383 17 19.7383C22.0064 19.7383 26.1293 23.4933 26.5905 28.4732L26.6374 28.9768L26.2247 29.2686C23.513 31.1866 20.3233 32.2 17 32.2ZM9.21563 28.1316C11.5342 29.6496 14.2142 30.4493 17 30.4493C19.7862 30.4493 22.4662 29.6496 24.7848 28.1316C24.1875 24.3107 20.9253 21.4894 17 21.4894C13.0742 21.4894 9.8125 24.3107 9.21563 28.1316Z" fill="black"/>
<path fill-rule="evenodd" clip-rule="evenodd" d="M7.15278 29.0739L7.21029 28.4552C7.21029 28.4552 7.21029 28.4551 7.21029 28.4552C7.68106 23.3722 11.8905 19.5383 17 19.5383C22.1095 19.5383 26.3189 23.3717 26.7897 28.4547C26.7897 28.4546 26.7897 28.4547 26.7897 28.4547L26.8472 29.0734L26.3402 29.4318C23.5947 31.3738 20.3646 32.4 17 32.4C13.6354 32.4 10.4053 31.3738 7.66024 29.4323L7.77571 29.269C10.4869 31.1866 13.6767 32.2 17 32.2C20.3233 32.2 23.513 31.1866 26.2247 29.2686L26.6374 28.9768L26.5905 28.4732C26.1293 23.4933 22.0064 19.7383 17 19.7383C11.9936 19.7383 7.87063 23.4937 7.40944 28.4736L7.36263 28.9773L7.77571 29.269L7.66024 29.4323M9.43423 28.035C11.6949 29.4857 14.2966 30.2493 17 30.2493C19.7038 30.2493 22.3055 29.4857 24.5662 28.035C23.9322 24.3762 20.7828 21.6894 17 21.6894C13.2167 21.6894 10.0678 24.3762 9.43423 28.035ZM9.21563 28.1316C9.8125 24.3107 13.0742 21.4894 17 21.4894C20.9253 21.4894 24.1875 24.3107 24.7848 28.1316C22.4662 29.6496 19.7862 30.4493 17 30.4493C14.2142 30.4493 11.5342 29.6496 9.21563 28.1316Z" fill="black"/>
</svg>
