<svg width="30" height="32" viewBox="0 0 30 32" fill="none" xmlns="http://www.w3.org/2000/svg">
<path d="M29.9028 21.4216C29.7035 20.5131 29.2344 19.6972 28.5837 19.1251C27.4883 18.1622 26.1502 18.0589 25.6255 18.0589C25.0927 18.0589 24.3701 18.1543 23.9471 18.6125L21.7657 20.978L17.4111 25.7024C17.3 25.8229 17.2186 25.9673 17.1725 26.1249C16.477 28.5406 16.5258 29.4651 16.6085 30.9961C16.6234 31.2768 16.7522 31.5404 16.9651 31.7285C17.1644 31.9046 17.4233 32 17.6904 32C17.7093 32 17.7283 32 17.7473 31.9987C19.3145 31.9179 20.2595 31.8702 22.6468 30.9418C22.8014 30.8822 22.9397 30.7868 23.0522 30.6663L27.4068 25.9419L29.5882 23.5751C30.1617 22.9553 29.9991 21.8627 29.9028 21.4216ZM21.6138 29.0622C20.292 29.5642 19.5437 29.7298 18.7356 29.8092C18.7316 29.0159 18.8237 28.2715 19.1966 26.9339L22.6536 23.1832L25.0723 25.3103L21.6138 29.0622ZM26.5231 23.7367L24.1044 21.6097L25.4127 20.1899C25.4656 20.1833 25.5361 20.178 25.6256 20.178C26.0662 20.178 26.6939 20.3157 27.1317 20.7011C27.6876 21.1912 27.8408 21.9872 27.8326 22.3156L26.5231 23.7367ZM14.6416 30.727C14.6416 31.3124 14.1563 31.7865 13.5571 31.7865H4.33832C1.94683 31.7865 0 29.8846 0 27.5484V6.88705C0 4.55076 1.94683 2.64886 4.33832 2.64886H5.42289V1.05955C5.42289 0.474134 5.90823 0 6.50747 0C7.10672 0 7.59205 0.474134 7.59205 1.05955V2.64886H12.4725V1.05955C12.4725 0.474134 12.9578 0 13.5571 0C14.1563 0 14.6416 0.474134 14.6416 1.05955V2.64886H20.0645V1.05955C20.0645 0.474134 20.5499 0 21.1491 0C21.7484 0 22.2337 0.474134 22.2337 1.05955V2.64886H22.776C25.1675 2.64886 27.1143 4.55076 27.1143 6.88705V15.893C27.1143 16.4784 26.629 16.9526 26.0297 16.9526C25.4305 16.9526 24.9451 16.4784 24.9451 15.893V6.88705C24.9451 5.7189 23.9717 4.76796 22.776 4.76796H22.2337V6.35727C22.2337 6.94269 21.7484 7.41682 21.1491 7.41682C20.5499 7.41682 20.0645 6.94269 20.0645 6.35727V4.76796H14.6416V6.35727C14.6416 6.94269 14.1563 7.41682 13.5571 7.41682C12.9578 7.41682 12.4725 6.94269 12.4725 6.35727V4.76796H7.59205V6.35727C7.59205 6.94269 7.10672 7.41682 6.50747 7.41682C5.90823 7.41682 5.42289 6.94269 5.42289 6.35727V4.76796H4.33832C3.14257 4.76796 2.16916 5.7189 2.16916 6.88705V27.5484C2.16916 28.7165 3.14257 29.6674 4.33832 29.6674H13.5571C14.1563 29.6674 14.6416 30.1416 14.6416 30.727ZM16.8108 21.721C17.41 21.721 17.8954 22.1952 17.8954 22.7806C17.8954 23.366 17.41 23.8401 16.8108 23.8401H5.42289C4.82365 23.8401 4.33832 23.366 4.33832 22.7806C4.33832 22.1952 4.82365 21.721 5.42289 21.721H16.8108ZM21.6912 18.5424H5.42255C4.8233 18.5424 4.33797 18.0683 4.33797 17.4828C4.33797 16.8974 4.8233 16.4233 5.42255 16.4233H21.6912C22.2905 16.4233 22.7758 16.8974 22.7758 17.4828C22.7758 18.0683 22.2905 18.5424 21.6912 18.5424ZM22.7758 12.1851C22.7758 12.7705 22.2905 13.2447 21.6912 13.2447H5.42255C4.8233 13.2447 4.33797 12.7705 4.33797 12.1851C4.33797 11.5997 4.8233 11.1256 5.42255 11.1256H21.6912C22.2905 11.1256 22.7758 11.5997 22.7758 12.1851Z" fill="black"/>
</svg>
