<svg width="20" height="20" viewBox="0 0 20 20" fill="none" xmlns="http://www.w3.org/2000/svg">
<path fill-rule="evenodd" clip-rule="evenodd" d="M19.6 10.2273C19.6 9.51819 19.5364 8.83637 19.4182 8.18182H10V12.05H15.3818C15.15 13.3 14.4455 14.3591 13.3864 15.0682V17.5773H16.6182C18.5091 15.8364 19.6 13.2727 19.6 10.2273Z" fill="#4285F4"/>
<path fill-rule="evenodd" clip-rule="evenodd" d="M9.99992 19.9999C12.6999 19.9999 14.9636 19.1044 16.6181 17.5771L13.3863 15.0681C12.4908 15.6681 11.3454 16.0226 9.99992 16.0226C7.39538 16.0226 5.19083 14.2635 4.40447 11.8999H1.06356V14.4908C2.70901 17.759 6.09083 19.9999 9.99992 19.9999Z" fill="#34A853"/>
<path fill-rule="evenodd" clip-rule="evenodd" d="M4.40455 11.9C4.20455 11.3 4.09091 10.6591 4.09091 10C4.09091 9.34094 4.20455 8.70003 4.40455 8.10003V5.50912H1.06364C0.386364 6.85912 0 8.3864 0 10C0 11.6137 0.386364 13.1409 1.06364 14.4909L4.40455 11.9Z" fill="#FBBC05"/>
<path fill-rule="evenodd" clip-rule="evenodd" d="M9.99992 3.97727C11.4681 3.97727 12.7863 4.48182 13.8227 5.47273L16.6908 2.60455C14.959 0.990909 12.6954 0 9.99992 0C6.09083 0 2.70901 2.24091 1.06356 5.50909L4.40447 8.1C5.19083 5.73636 7.39538 3.97727 9.99992 3.97727Z" fill="#EA4335"/>
</svg>
